<svg xmlns="http://www.w3.org/2000/svg" fill="none" viewBox="0 0 24 24" width="24px" height="24px"><path fill="#000" d="M12 12q.054 0 .106.005A1.998 1.998 0 0 1 13 15.729V17a1 1 0 1 1-2 0v-1.27a1.997 1.997 0 0 1 .893-3.725Q11.945 12 12 12"/><path fill="#000" fill-rule="evenodd" d="M12 2a4.5 4.5 0 0 1 4.5 4.5V8h1.357l.239.01c1.181.094 2.193.887 2.425 2.066.243 1.233.479 2.94.479 4.924l-.01.73a26 26 0 0 1-.468 4.194l-.057.231c-.311 1.051-1.267 1.747-2.37 1.835l-.238.01H6.143l-.239-.01c-1.181-.094-2.193-.887-2.425-2.066a26 26 0 0 1-.468-4.193L3 15c0-1.736.18-3.26.389-4.44l.09-.484C3.726 8.82 4.86 8 6.143 8H7.5V6.5A4.5 4.5 0 0 1 12 2m-5.857 8a.84.84 0 0 0-.508.157.5.5 0 0 0-.194.305A23.7 23.7 0 0 0 5 15c0 1.828.218 3.405.441 4.538a.5.5 0 0 0 .194.305.84.84 0 0 0 .508.157h11.714a.84.84 0 0 0 .508-.157.5.5 0 0 0 .194-.305c.223-1.133.441-2.71.441-4.538s-.218-3.405-.441-4.538a.5.5 0 0 0-.194-.305.84.84 0 0 0-.508-.157zM12 4a2.5 2.5 0 0 0-2.5 2.5V8h5V6.5A2.5 2.5 0 0 0 12 4" clip-rule="evenodd"/></svg>