<svg xmlns="http://www.w3.org/2000/svg" fill="none" viewBox="0 0 24 24" width="24px" height="24px"><path fill="#000" d="M5.16 20h13.67c1.16 0 2.16-.78 2.43-1.89.97-4.05.97-8.16 0-12.21a2.49 2.49 0 0 0-2.43-1.89H5.16C4 4.01 3 4.79 2.73 5.9a26 26 0 0 0 0 12.21A2.49 2.49 0 0 0 5.16 20M4.68 6.36A.49.49 0 0 1 5.17 6h13.67c.23 0 .44.15.49.36.09.36.16.72.23 1.09l-6.4 4.52c-.69.49-1.62.49-2.31 0l-6.4-4.52c.07-.36.14-.72.23-1.09m-.55 3.31L9.7 13.6c.69.49 1.5.73 2.31.73s1.62-.24 2.31-.73l5.57-3.93c.26 2.66.09 5.33-.55 7.97a.49.49 0 0 1-.49.36H5.18c-.23 0-.44-.15-.49-.36a24.1 24.1 0 0 1-.55-7.97z"/></svg>