<svg width="24" height="24" viewBox="0 0 24 24" fill="none" xmlns="http://www.w3.org/2000/svg">
<path d="M20 9.50098C20 14.741 15.51 19.001 9.99999 19.001C9.67999 19.001 9.35999 18.981 9.01999 18.951L8.64999 19.061C10.1477 20.3202 12.0433 21.0076 14 21.001C14.73 21.001 15.47 20.901 16.18 20.711L18.55 21.891C18.7021 21.9686 18.8716 22.0058 19.0423 21.9991C19.2129 21.9923 19.379 21.9419 19.5245 21.8525C19.6701 21.7632 19.7902 21.638 19.8735 21.4889C19.9568 21.3398 20.0003 21.1718 20 21.001V18.461C21.29 17.091 22 15.341 22 13.501C22 11.661 21.22 9.83098 19.94 8.50098C19.98 8.83098 20 9.16098 20 9.50098Z" fill="#0A1317"/>
<path d="M18 9.50098C18 5.36098 14.41 2.00098 10 2.00098C5.59 2.00098 2 5.36098 2 9.50098C2 11.341 2.71 13.091 4 14.461V17.001C4 17.2662 4.10536 17.5205 4.29289 17.7081C4.48043 17.8956 4.73478 18.001 5 18.001C5.15 18.001 5.31 17.961 5.45 17.891L7.82 16.711C8.54 16.901 9.27 17.001 10 17.001C14.41 17.001 18 13.641 18 9.50098ZM7.27 14.751L6 15.391V14.051C6 13.781 5.89 13.511 5.69 13.321C4.6 12.291 4 10.931 4 9.50098C4 6.47098 6.69 4.00098 10 4.00098C13.31 4.00098 16 6.47098 16 9.50098C16 12.531 13.31 15.001 10 15.001C9.34 15.001 8.67 14.901 8.02 14.691C7.8972 14.6511 7.76772 14.6358 7.63901 14.6461C7.5103 14.6564 7.3849 14.6921 7.27 14.751Z" fill="#0A1317"/>
</svg>
