<svg width="24" height="24" viewBox="0 0 24 24" fill="none" xmlns="http://www.w3.org/2000/svg">
<path d="M12 2.5C17.2466 2.5 21.5 6.75336 21.5 12C21.5 17.2466 17.2466 21.5 12 21.5C10.3455 21.5 8.79033 21.0766 7.43555 20.333L2.5 21.5L3.76465 16.7393C2.96024 15.3445 2.5 13.7259 2.5 12C2.5 6.75336 6.75336 2.5 12 2.5ZM12 4.20117C7.69307 4.20117 4.20117 7.69307 4.20117 12C4.20123 13.6606 4.7207 15.2001 5.60547 16.4648L4.78809 19.251L7.70312 18.5088C8.93522 19.3239 10.4122 19.7979 12 19.7979C16.3068 19.7979 19.7987 16.3068 19.7988 12C19.7988 7.69307 16.3069 4.20117 12 4.20117ZM9.38867 7.31152C9.50505 7.30202 9.6125 7.37003 9.66211 7.47559L10.7461 9.77344C10.7973 9.88214 10.7744 10.0117 10.6895 10.0967L9.88184 10.9043C9.70714 11.079 9.65603 11.3515 9.77637 11.5674C10.0711 12.0959 10.4676 12.6049 10.9268 13.0732C11.3951 13.5324 11.9041 13.9292 12.4326 14.2236C12.6483 14.3438 12.9198 14.2926 13.0947 14.1182L13.9033 13.3105C13.9882 13.2257 14.1169 13.2026 14.2256 13.2539L16.5244 14.3379C16.6299 14.3875 16.697 14.4943 16.6875 14.6104C16.6627 14.9128 16.5414 15.5192 15.998 16.0625C14.4657 17.5943 11.7156 15.864 11.5986 15.7939C10.9213 15.4301 10.2773 14.9431 9.66699 14.333C9.05665 13.7229 8.56995 13.0787 8.20605 12.4014C8.13876 12.2895 6.40351 9.53496 7.9375 8.00098C8.48053 7.45814 9.08619 7.3364 9.38867 7.31152Z" fill="#0A1317"/>
</svg>
