<svg preserveAspectRatio="none" width="100%" height="100%" overflow="visible" style="display: block;" viewBox="0 0 120 120" fill="none" xmlns="http://www.w3.org/2000/svg">
<path id="Combined Shape" d="M60 0C76.2952 0 78.3387 0.0692969 84.7383 0.361328C91.1245 0.65292 95.4863 1.66707 99.3027 3.15039C103.248 4.68365 106.594 6.73482 109.93 10.0703C113.265 13.4058 115.316 16.752 116.85 20.6973C118.333 24.5137 119.347 28.8755 119.639 35.2617C119.931 41.6613 120 43.7048 120 60C120 76.2952 119.931 78.3387 119.639 84.7383C119.347 91.1245 118.333 95.4863 116.85 99.3027C115.316 103.248 113.265 106.594 109.93 109.93C106.594 113.265 103.248 115.316 99.3027 116.85C95.4863 118.333 91.1245 119.347 84.7383 119.639C78.3387 119.931 76.2952 120 60 120C43.7048 120 41.6613 119.931 35.2617 119.639C28.8755 119.347 24.5137 118.333 20.6973 116.85C16.752 115.316 13.4058 113.265 10.0703 109.93C6.73482 106.594 4.68365 103.248 3.15039 99.3027C1.66707 95.4863 0.65292 91.1245 0.361328 84.7383C0.0692969 78.3387 0 76.2952 0 60C5.04173e-09 43.7048 0.0692969 41.6613 0.361328 35.2617C0.65292 28.8755 1.66707 24.5137 3.15039 20.6973C4.68365 16.752 6.73482 13.4058 10.0703 10.0703C13.4058 6.73482 16.752 4.68365 20.6973 3.15039C24.5137 1.66707 28.8755 0.65292 35.2617 0.361328C41.6613 0.0692969 43.7048 5.04098e-09 60 0ZM59.999 10.8105C43.9787 10.8105 42.0808 10.8716 35.7539 11.1602C29.9044 11.4271 26.7275 12.4049 24.6133 13.2266C21.8127 14.315 19.8134 15.6153 17.7139 17.7148C15.6146 19.8142 14.314 21.8129 13.2256 24.6133C12.4041 26.7276 11.4271 29.9052 11.1602 35.7549C10.8717 42.0815 10.8105 43.9796 10.8105 60C10.8105 76.0204 10.8716 77.9182 11.1602 84.2451C11.4271 90.0943 12.4041 93.2715 13.2256 95.3857C14.314 98.1863 15.6144 100.186 17.7139 102.285C19.8134 104.385 21.8127 105.685 24.6133 106.773C26.7275 107.595 29.9047 108.572 35.7539 108.839C42.0799 109.127 43.9775 109.188 59.999 109.188C76.0205 109.188 77.9185 109.127 84.2441 108.839C90.0937 108.572 93.2714 107.595 95.3857 106.773C98.1863 105.685 100.186 104.385 102.285 102.285C104.385 100.186 105.685 98.1862 106.773 95.3857C107.595 93.2715 108.572 90.0943 108.839 84.2451C109.127 77.9182 109.188 76.0204 109.188 60C109.188 43.9796 109.127 42.0815 108.839 35.7549C108.572 29.9053 107.595 26.7276 106.773 24.6133C105.685 21.8129 104.384 19.8142 102.285 17.7148C100.186 15.6153 98.1863 14.315 95.3857 13.2266C93.2714 12.4048 90.0939 11.4271 84.2441 11.1602C77.9176 10.8717 76.0193 10.8105 59.999 10.8105ZM59.999 29.1875C77.0152 29.1877 90.8096 42.9828 90.8096 59.999C90.8093 77.015 77.015 90.8094 59.999 90.8096C42.9829 90.8096 29.1878 77.0151 29.1875 59.999C29.1875 42.9827 42.9827 29.1875 59.999 29.1875ZM59.998 39.9971C48.9525 39.9971 39.9982 48.9515 39.998 59.9971C39.998 71.0427 48.9524 79.9971 59.998 79.9971C71.0436 79.997 79.998 71.0426 79.998 59.9971C79.9979 48.9516 71.0435 39.9971 59.998 39.9971ZM92.0283 20.7715C96.0048 20.7717 99.2275 23.9952 99.2275 27.9717C99.2275 31.9479 96.0048 35.1717 92.0283 35.1719C88.0519 35.1719 84.8282 31.948 84.8281 27.9717C84.8281 23.995 88.0519 20.7715 92.0283 20.7715Z" fill="var(--fill-0, black)"/>
</svg>
