<svg xmlns="http://www.w3.org/2000/svg" fill="none" viewBox="0 0 24 24" width="24px" height="24px"><path fill="#000" d="M4.35 14.93c.86 1.62 1.41 3.24 1.58 4.84.14 1.27 1.2 2.23 2.48 2.23H9.5a2.5 2.5 0 0 0 2.5-2.5v-3.91c2.74 1.26 5.05 1.96 7.51 2.3-.06.54.32 1.03.86 1.11h.13c.49 0 .92-.37.99-.87.68-5.06.68-10.2 0-15.26a1 1 0 0 0-1.12-.86c-.54.07-.92.57-.86 1.11-2.82.39-5.44 1.25-8.74 2.88H5C3.35 6 2 7.35 2 9v3c0 1.43 1.01 2.63 2.35 2.93M12 7.63c2.88-1.4 5.2-2.17 7.65-2.52.47 3.58.47 7.2 0 10.78-2.45-.35-4.77-1.12-7.65-2.52V7.62zM10 19.5c0 .28-.22.5-.5.5H8.41c-.25 0-.46-.19-.49-.45-.17-1.51-.6-3.04-1.29-4.55h3.36v4.5zM4 9c0-.55.45-1 1-1h5v5H5c-.55 0-1-.45-1-1z"/></svg>