<svg xmlns="http://www.w3.org/2000/svg" fill="none" viewBox="0 0 24 24" width="24px" height="24px"><path fill="#000" d="M14.973 8.988a1 1 0 0 1 1.28 1.537l-.076.063a36.6 36.6 0 0 0-4.689 4.688 1.09 1.09 0 0 1-1.607.074l-2.183-2.183a1.001 1.001 0 0 1 1.414-1.415L10.6 13.24a38.6 38.6 0 0 1 4.296-4.188z"/><path fill="#000" fill-rule="evenodd" d="M13.944 2.122a1 1 0 0 1 1.332.356l1.149 1.88 2.204.056.098.008a1 1 0 0 1 .876.967l.055 2.203 1.88 1.15a1 1 0 0 1 .358 1.331l-1.054 1.936 1.054 1.935a1 1 0 0 1-.357 1.332l-1.88 1.149-.056 2.204a1 1 0 0 1-.974.974l-2.204.055-1.149 1.881a1 1 0 0 1-1.332.357l-1.935-1.054-1.936 1.054a1 1 0 0 1-1.332-.357l-1.15-1.88-2.202-.056a1 1 0 0 1-.975-.974l-.056-2.204-1.88-1.149a1 1 0 0 1-.356-1.332l1.054-1.935-1.054-1.936a1 1 0 0 1 .356-1.332l1.88-1.15.056-2.202a1 1 0 0 1 .975-.975l2.203-.056 1.15-1.88.055-.082a1 1 0 0 1 1.276-.274l1.936 1.054zm-4.93 3.745a1 1 0 0 1-.828.478L6.39 6.39l-.045 1.796a1 1 0 0 1-.478.829l-1.535.937.86 1.578a1 1 0 0 1 0 .957l-.86 1.577 1.535.939.103.072a1 1 0 0 1 .375.756l.045 1.797 1.796.045.126.01a1 1 0 0 1 .703.468l.937 1.534 1.578-.86.115-.054c.273-.106.582-.088.842.054l1.578.858.938-1.532.072-.103a1 1 0 0 1 .756-.375l1.797-.045.045-1.797.01-.126a1 1 0 0 1 .468-.702l1.532-.938-.858-1.578a1 1 0 0 1 0-.957l.86-1.578-1.534-.937a1 1 0 0 1-.478-.829l-.045-1.796-1.797-.045a1 1 0 0 1-.828-.478l-.939-1.534-1.577.86a1 1 0 0 1-.957 0l-1.578-.861z" clip-rule="evenodd"/></svg>