<svg xmlns="http://www.w3.org/2000/svg" fill="none" viewBox="0 0 24 24" width="24px" height="24px"><path fill="#000" d="M11 14H7s-.04.01-.07.01c-.19.01-.37.09-.51.19-.1.08-.19.17-.26.28-.04.06-.08.12-.1.19-.04.1-.07.21-.07.32s.03.22.07.32c.02.07.06.13.1.19.07.11.15.2.26.28.15.11.32.18.51.19.02 0 .04.01.07.01h4c.28 0 .53-.11.71-.29s.29-.43.29-.71-.11-.53-.29-.71a1 1 0 0 0-.71-.29z"/><path fill="#000" d="M21.5 6.1c-.22-1.22-1.29-2.03-2.52-2.09-.04 0-.09-.01-.13-.01H5.17s-.09 0-.13.01c-1.23.06-2.3.87-2.52 2.09-.25 1.38-.5 3.38-.5 5.9s.25 4.52.5 5.9c.22 1.22 1.29 2.03 2.52 2.09.04 0 .09.01.13.01h13.68s.09 0 .13-.01c1.23-.06 2.3-.87 2.52-2.09.25-1.38.5-3.38.5-5.9s-.25-4.52-.5-5.9M18.84 6c.06 0 .11.02.17.03.16.05.28.17.31.33q.195.825.33 1.65H4.34q.135-.825.33-1.65c.04-.15.16-.28.31-.33.06-.01.11-.03.17-.03zM5.16 18c-.06 0-.11-.02-.17-.03a.43.43 0 0 1-.31-.33c-.61-2.54-.79-5.1-.58-7.65h15.8c.22 2.55.03 5.11-.58 7.65-.04.15-.16.28-.31.33-.06.01-.11.03-.17.03z"/></svg>