<svg width="24" height="24" viewBox="0 0 24 24" fill="none" xmlns="http://www.w3.org/2000/svg">
<path d="M20.6211 9.21973C21.1623 9.10994 21.6899 9.45984 21.7998 10.001C21.9311 10.6477 22 11.3164 22 12C22 17.5228 17.5228 22 12 22C9.27365 22 6.80294 20.9052 5 19.1367V21C5 21.5523 4.55228 22 4 22C3.44772 22 3 21.5523 3 21V17C3 16.4477 3.44772 16 4 16H8C8.55228 16 9 16.4477 9 17C9 17.5523 8.55228 18 8 18H6.71289C8.12348 19.2443 9.97203 20 12 20C16.4183 20 20 16.4183 20 12C20 11.4509 19.9446 10.9158 19.8398 10.3994C19.73 9.85817 20.0798 9.32959 20.6211 9.21973Z" fill="black" style="fill:black;fill-opacity:1;"/>
<path d="M12.042 6.5C12.456 6.50018 12.792 6.8359 12.792 7.25V8.04297C12.792 8.06138 12.7904 8.07958 12.7891 8.09766C13.3485 8.19194 13.8816 8.38563 14.4307 8.70605C14.7883 8.91488 14.909 9.37472 14.7002 9.73242C14.4914 10.0898 14.0324 10.2104 13.6748 10.002C13.0879 9.65941 12.5668 9.52734 11.9414 9.52734H11.8242C11.2447 9.52739 10.8929 9.65195 10.7051 9.79004C10.5494 9.90455 10.4512 10.0652 10.4512 10.3506C10.4513 10.5929 10.5286 10.7242 10.6562 10.8281C10.7968 10.9425 11.044 11.0561 11.4404 11.127L11.6201 11.1543L12.6279 11.2881L12.8809 11.3223C13.4654 11.4158 14.0016 11.6065 14.4121 11.9658C14.9115 12.4031 15.125 13.0004 15.125 13.6602C15.1248 14.3593 14.8003 14.9822 14.2295 15.4082C13.8375 15.7007 13.3477 15.8854 12.792 15.9707V16.75C12.792 17.1641 12.456 17.4998 12.042 17.5C11.6278 17.5 11.292 17.1642 11.292 16.75V15.9844C10.5175 15.8813 9.82456 15.5869 9.1748 15.0986C8.84375 14.8498 8.77674 14.3799 9.02539 14.0488C9.27413 13.7178 9.74409 13.651 10.0752 13.8994C10.6469 14.329 11.2253 14.5273 11.9297 14.5273H12.0645C12.7009 14.5273 13.1062 14.3745 13.332 14.2061C13.5419 14.0494 13.6248 13.8635 13.625 13.6602C13.625 13.34 13.5341 13.1913 13.4238 13.0947C13.2831 12.9716 13.0004 12.8391 12.46 12.7783L12.4531 12.7773L12.4453 12.7764L11.4238 12.6416C10.7839 12.5574 10.1735 12.3684 9.70996 11.9912C9.21357 11.5871 8.95135 11.0194 8.95117 10.3506C8.95117 9.62716 9.24572 9.00069 9.81641 8.58105C10.2269 8.27929 10.7364 8.11537 11.292 8.05469V7.25C11.292 6.83579 11.6278 6.5 12.042 6.5Z" fill="black" style="fill:black;fill-opacity:1;"/>
<path d="M20 2C20.5523 2 21 2.44772 21 3V7C21 7.55228 20.5523 8 20 8H16C15.4477 8 15 7.55228 15 7C15 6.44772 15.4477 6 16 6H17.2871C15.8765 4.75573 14.028 4 12 4C7.58172 4 4 7.58172 4 12C4 12.5491 4.05537 13.0842 4.16016 13.6006C4.27002 14.1418 3.92015 14.6704 3.37891 14.7803C2.83774 14.8901 2.31011 14.5402 2.2002 13.999C2.06892 13.3523 2 12.6836 2 12C2 6.47715 6.47715 2 12 2C14.7261 2 17.1971 3.09412 19 4.8623V3C19 2.44772 19.4477 2 20 2Z" fill="black" style="fill:black;fill-opacity:1;"/>
</svg>
