<svg width="24" height="24" viewBox="0 0 24 24" fill="none" xmlns="http://www.w3.org/2000/svg">
<path d="M4.0906 10.81C4.0306 11.21 4.0006 11.61 4.0006 12C4.0006 12.39 4.0306 12.79 4.0906 13.19L2.90059 14.34C2.49059 14.74 2.4006 15.36 2.6906 15.86L3.99059 18.12C4.28059 18.62 4.86061 18.86 5.42061 18.7L7.02059 18.24C7.65059 18.75 8.34059 19.15 9.08059 19.44L9.48061 21.04C9.62061 21.6 10.1206 21.99 10.6906 21.99H13.3006C13.8706 21.99 14.3706 21.6 14.5106 21.04L14.9106 19.44C15.6506 19.15 16.3406 18.75 16.9706 18.24L18.5706 18.7C19.1206 18.86 19.7106 18.62 20.0006 18.12L21.3106 15.86C21.6006 15.36 21.5106 14.74 21.0906 14.34L19.9006 13.19C19.9606 12.79 19.9906 12.39 19.9906 12C19.9906 11.61 19.9606 11.21 19.9006 10.81L21.0906 9.66001C21.5006 9.26001 21.5906 8.64001 21.3006 8.14001L20.0006 5.88001C19.7106 5.38001 19.1306 5.14001 18.5706 5.30001L16.9706 5.76001C16.3406 5.25001 15.6506 4.85001 14.9106 4.56001L14.5106 2.96001C14.3706 2.40001 13.8706 2.01001 13.3006 2.01001H10.6906C10.1206 2.01001 9.62061 2.40001 9.48061 2.96001L9.08059 4.56001C8.34059 4.85001 7.65059 5.25001 7.02059 5.76001L5.42061 5.30001C4.87061 5.14001 4.28059 5.38001 3.99059 5.88001L2.68059 8.14001C2.39059 8.64001 2.48059 9.26001 2.90059 9.66001L4.0906 10.81ZM6.15059 13.32C6.05059 12.88 6.0006 12.43 6.0006 12C6.0006 11.57 6.05059 11.12 6.15059 10.68L6.27059 10.13L4.71059 8.62001L5.43059 7.37001L7.52059 7.97001L7.93059 7.59001C8.60059 6.97001 9.37059 6.53001 10.2106 6.26001L10.7506 6.09001L11.2806 3.99001H12.7206L13.2506 6.09001L13.7906 6.26001C14.6306 6.52001 15.4006 6.97001 16.0706 7.59001L16.4806 7.97001L18.5706 7.37001L19.2906 8.62001L17.7306 10.13L17.8506 10.68C17.9506 11.12 18.0006 11.57 18.0006 12C18.0006 12.43 17.9506 12.88 17.8506 13.32L17.7306 13.87L19.2906 15.38L18.5706 16.63L16.4806 16.03L16.0706 16.41C15.4006 17.03 14.6306 17.47 13.7906 17.74L13.2506 17.91L12.7206 20.01H11.2806L10.7506 17.91L10.2106 17.74C9.37059 17.48 8.60059 17.03 7.93059 16.41L7.52059 16.03L5.43059 16.63L4.71059 15.38L6.27059 13.87L6.15059 13.32Z" fill="black"/>
<path d="M12.0005 16C14.2105 16 16.0005 14.21 16.0005 12C16.0005 9.79 14.2105 8 12.0005 8C9.79049 8 8.00049 9.79 8.00049 12C8.00049 14.21 9.79049 16 12.0005 16ZM12.0005 10C13.1005 10 14.0005 10.9 14.0005 12C14.0005 13.1 13.1005 14 12.0005 14C10.9005 14 10.0005 13.1 10.0005 12C10.0005 10.9 10.9005 10 12.0005 10Z" fill="black"/>
</svg>
