<svg xmlns="http://www.w3.org/2000/svg" fill="none" viewBox="0 0 24 24" width="24px" height="24px"><path fill="#000" d="M7.37 13.973a1.881 1.881 0 1 1 2.66 2.66 1.881 1.881 0 0 1-2.66-2.66"/><path fill="#000" fill-rule="evenodd" d="M20 2.999A1 1 0 0 1 21 4v2.66a1 1 0 0 1-.683.948l-1.52.507-.508 1.52a1 1 0 0 1-.631.633l-1.52.506-.507 1.52a1 1 0 0 1-.24.39l-1.179 1.178a5.7 5.7 0 0 1-1.481 5.471 5.7 5.7 0 1 1-8.062-8.062 5.7 5.7 0 0 1 5.471-1.483l6.494-6.495A1 1 0 0 1 17.341 3zm-9.337 9.096-.61-.239a3.701 3.701 0 1 0 2.093 2.093l-.24-.61 1.903-1.902.59-1.77.043-.108a1 1 0 0 1 .589-.525l1.52-.507.506-1.52.044-.108c.116-.246.328-.437.589-.524L19 5.938V5h-1.245z" clip-rule="evenodd"/></svg>