<svg width="60" height="12" viewBox="0 0 60 12" fill="none" xmlns="http://www.w3.org/2000/svg">
<path d="M21.857 0.38559H24.1139L27.9514 7.32745L31.789 0.385595H33.997V11.7924H32.1556V3.04993L28.7906 9.10367H27.0633L23.6983 3.04993V11.7924H21.857V0.38559Z" fill="white" style="fill:white;fill-opacity:1;"/>
<path d="M39.9365 11.9961C39.0837 11.9961 38.3341 11.8073 37.6878 11.4298C37.0413 11.0523 36.5375 10.5295 36.1764 9.8614C35.8151 9.19326 35.6345 8.42738 35.6345 7.56375C35.6345 6.68927 35.8111 5.91524 36.1641 5.24165C36.5172 4.5682 37.0074 4.0413 37.6348 3.66094C38.2622 3.28083 38.9833 3.09072 39.798 3.09062C40.6073 3.09062 41.3039 3.28208 41.8879 3.665C42.4717 4.04803 42.9212 4.58444 43.2363 5.27422C43.5513 5.96411 43.7088 6.77345 43.7089 7.70225V8.20733H37.4596C37.5737 8.90273 37.8548 9.45 38.3029 9.84912C38.751 10.2484 39.3173 10.448 40.0017 10.448C40.5503 10.448 41.0228 10.3665 41.4194 10.2035C41.8158 10.0406 42.1879 9.79345 42.5357 9.46214L43.5134 10.6598C42.541 11.5507 41.3487 11.9962 39.9365 11.9961ZM41.2809 5.22937C40.8952 4.83563 40.39 4.63872 39.7654 4.63865C39.157 4.63865 38.6478 4.83965 38.2377 5.24165C37.8276 5.64361 37.5682 6.18408 37.4596 6.86304H41.9409C41.8865 6.16774 41.6665 5.62319 41.2809 5.22937Z" fill="white" style="fill:white;fill-opacity:1;"/>
<path d="M45.9415 4.80171H44.2468V3.29436H45.9415V0.801186H47.7177V3.29436H50.2924V4.80171H47.7177V8.62294C47.7177 9.2584 47.8264 9.71195 48.0436 9.98356C48.2608 10.2553 48.6329 10.391 49.1599 10.3909C49.3933 10.3909 49.5916 10.3814 49.7547 10.3624C49.9176 10.3435 50.0968 10.3177 50.2924 10.285V11.776C50.0692 11.8406 49.8419 11.8896 49.612 11.9227C49.349 11.9614 49.0835 11.9805 48.8176 11.9798C46.9002 11.9798 45.9415 10.9314 45.9415 8.83479V4.80171Z" fill="white" style="fill:white;fill-opacity:1;"/>
<path d="M59.5484 11.7924H57.8048V10.6028C57.4951 11.0483 57.1013 11.3918 56.6234 11.6335C56.1453 11.8751 55.6021 11.996 54.9938 11.9961C54.2442 11.9961 53.5802 11.8046 53.0017 11.4216C52.4232 11.0387 51.9683 10.5118 51.637 9.84102C51.3056 9.17017 51.1399 8.40294 51.1399 7.53931C51.1399 6.67024 51.3083 5.90162 51.6451 5.23344C51.9819 4.5654 52.4476 4.04124 53.0424 3.66095C53.6372 3.28084 54.3203 3.09073 55.0916 3.09062C55.6728 3.09062 56.1942 3.20335 56.6559 3.42881C57.1114 3.64913 57.5059 3.97784 57.8048 4.38612V3.29436H59.5484V11.7924ZM57.7722 6.26826C57.582 5.78482 57.2819 5.40322 56.8718 5.12344C56.4617 4.84374 55.9877 4.70389 55.4501 4.70389C54.6895 4.70389 54.0839 4.95918 53.6332 5.46974C53.1823 5.98034 52.9568 6.67019 52.9569 7.5393C52.9569 8.41389 53.1742 9.10645 53.6087 9.61698C54.0432 10.1276 54.6326 10.3829 55.3768 10.3828C55.9253 10.3828 56.4142 10.2416 56.8433 9.95911C57.2724 9.67681 57.582 9.29659 57.7722 8.81845L57.7722 6.26826Z" fill="white" style="fill:white;fill-opacity:1;"/>
<path d="M5.18893 0C5.18312 0 5.17734 2.05371e-05 5.17154 5.05371e-05L5.1478 1.96148C5.15323 1.96142 5.15866 1.96137 5.1641 1.96137H5.16411C6.45514 1.96137 7.45654 2.9793 9.63309 6.6455L9.76577 6.86869L9.77445 6.8833L10.9929 5.05519L10.9844 5.04107C10.6977 4.57472 10.4222 4.14564 10.158 3.75384C9.85163 3.29988 9.55862 2.89433 9.27426 2.53225C7.8344 0.698954 6.62995 0 5.18893 0Z" fill="white" style="fill:white;fill-opacity:1;"/>
<path d="M5.17152 5.05371e-05C3.7235 0.00750014 2.44336 0.943841 1.51898 2.37664C1.51628 2.38083 1.51357 2.38503 1.51086 2.38924L3.20766 3.31279C3.21042 3.30861 3.21318 3.30443 3.21595 3.30028C3.75573 2.48756 4.42747 1.9692 5.14778 1.96148C5.15321 1.96142 5.15864 1.96137 5.16408 1.96137L5.18891 0C5.1831 0 5.17732 2.05371e-05 5.17152 5.05371e-05Z" fill="white" style="fill:white;fill-opacity:1;"/>
<path d="M1.51899 2.37665C1.51628 2.38084 1.51357 2.38504 1.51087 2.38925C0.903452 3.3348 0.45064 4.4951 0.205928 5.74685C0.204868 5.75227 0.203812 5.75769 0.202759 5.76312L2.10904 6.21291C2.11004 6.20748 2.11104 6.20204 2.11204 6.1966C2.3158 5.09652 2.70374 4.07624 3.20766 3.3128C3.21041 3.30862 3.21318 3.30444 3.21595 3.30028L1.51899 2.37665Z" fill="white" style="fill:white;fill-opacity:1;"/>
<path d="M2.11205 6.1966L0.205933 5.74686C0.204873 5.75227 0.203816 5.7577 0.202764 5.76313C0.0693251 6.45153 0.00143812 7.15104 1.38202e-05 7.85226C2.62024e-06 7.85793 -1.76335e-06 7.86359 6.36649e-07 7.86926L1.95497 8.04416C1.95482 8.03847 1.95465 8.03285 1.95452 8.02713C1.95356 7.98647 1.95307 7.94524 1.95306 7.90347C1.95403 7.3364 2.00624 6.77058 2.10905 6.21291C2.11005 6.20748 2.11105 6.20204 2.11205 6.1966Z" fill="white" style="fill:white;fill-opacity:1;"/>
<path d="M2.01443 8.65407C1.97936 8.45254 1.95949 8.24865 1.95497 8.04413C1.95482 8.03844 1.95465 8.03282 1.95452 8.02711L1.38202e-05 7.85223C2.62024e-06 7.8579 -1.76335e-06 7.86357 6.36649e-07 7.86924V7.87034C6.36649e-07 8.30675 0.0363945 8.71537 0.107126 9.09285C0.108149 9.09831 0.109154 9.10367 0.110192 9.10912L2.01739 8.6704C2.01638 8.66498 2.01541 8.65952 2.01443 8.65407Z" fill="white" style="fill:white;fill-opacity:1;"/>
<path d="M2.45982 9.66592C2.24709 9.43372 2.09654 9.09878 2.01738 8.67041C2.01638 8.66499 2.01541 8.65953 2.01443 8.65408L0.107117 9.09286C0.108139 9.09832 0.109145 9.10368 0.110183 9.10913C0.254345 9.86603 0.537071 10.4968 0.941958 10.9741C0.945558 10.9783 0.949171 10.9825 0.952797 10.9868L2.47119 9.67815C2.46739 9.67411 2.46358 9.67002 2.45982 9.66592Z" fill="white" style="fill:white;fill-opacity:1;"/>
<path d="M8.11038 4.24033C6.96104 6.00325 6.26477 7.10897 6.26477 7.10897C4.73373 9.50897 4.20408 10.0469 3.35167 10.0469C2.99598 10.0469 2.69883 9.92023 2.47118 9.67814C2.46739 9.6741 2.46358 9.67002 2.45982 9.66592L0.941956 10.974C0.945556 10.9783 0.949168 10.9825 0.952794 10.9868C1.51185 11.6384 2.30097 12 3.27719 12C4.75415 12 5.81639 11.3037 7.70476 8.00276C7.70476 8.00276 8.49196 6.61265 9.0335 5.65508C8.69805 5.11348 8.39278 4.6446 8.11038 4.24033Z" fill="white" style="fill:white;fill-opacity:1;"/>
<path d="M10.159 1.45776C10.1551 1.46188 10.1512 1.46608 10.1473 1.4702C9.84548 1.79178 9.55582 2.15089 9.27402 2.53191C9.55838 2.89399 9.85194 3.30032 10.1583 3.75428C10.5195 3.19692 10.8565 2.7455 11.1869 2.39951C11.1908 2.39541 11.1947 2.39142 11.1986 2.38735L10.159 1.45776Z" fill="white" style="fill:white;fill-opacity:1;"/>
<path d="M15.7389 1.28495C14.9374 0.475177 13.9816 3.05176e-05 12.9599 3.05176e-05C11.8826 3.05176e-05 10.9764 0.590418 10.159 1.45777C10.1551 1.46188 10.1512 1.46608 10.1473 1.47021L11.1869 2.39951C11.1908 2.39541 11.1946 2.39142 11.1986 2.38735C11.737 1.82726 12.2581 1.54762 12.8358 1.54762H12.8358C13.4575 1.54762 14.0396 1.8403 14.5437 2.35342C14.5477 2.35744 14.5516 2.36143 14.5555 2.36548L15.7509 1.29701C15.7469 1.29297 15.7429 1.28898 15.7389 1.28495Z" fill="white" style="fill:white;fill-opacity:1;"/>
<path d="M18.0562 7.59412C18.0113 4.99408 17.1014 2.66967 15.7509 1.297C15.7469 1.29296 15.7429 1.28897 15.7389 1.28494L14.5438 2.35341C14.5477 2.35743 14.5516 2.36142 14.5556 2.36547C15.5716 3.40909 16.2684 5.35026 16.3318 7.59356C16.332 7.5992 16.3321 7.60485 16.3323 7.6105L18.0564 7.61105C18.0564 7.60541 18.0563 7.59977 18.0562 7.59412Z" fill="white" style="fill:white;fill-opacity:1;"/>
<path d="M18.0564 7.61106C18.0564 7.60542 18.0563 7.59977 18.0562 7.59412L16.3318 7.59357C16.332 7.59921 16.3321 7.60486 16.3323 7.61051C16.3351 7.7158 16.3365 7.82172 16.3365 7.92828C16.3365 8.53992 16.2451 9.03434 16.0594 9.39129C16.0566 9.39659 16.0538 9.4019 16.051 9.40713L17.3366 10.7442C17.3398 10.7394 17.3429 10.7345 17.3461 10.7297C17.8128 10.0095 18.0579 9.00906 18.0579 7.79587C18.0579 7.73411 18.0574 7.67251 18.0564 7.61106Z" fill="white" style="fill:white;fill-opacity:1;"/>
<path d="M16.0593 9.3913C16.0566 9.39659 16.0538 9.40191 16.051 9.40714C15.8902 9.70802 15.6607 9.9087 15.3607 9.99646L15.9468 11.8435C16.0244 11.8172 16.1 11.7876 16.1735 11.7548C16.1954 11.745 16.2172 11.7349 16.2388 11.7246C16.2512 11.7186 16.2636 11.7126 16.276 11.7064C16.6635 11.5133 16.991 11.2284 17.2559 10.8613C17.272 10.8389 17.2881 10.8163 17.3038 10.7933C17.3148 10.7771 17.3258 10.7607 17.3366 10.7442C17.3398 10.7394 17.3429 10.7345 17.3461 10.7297L16.0593 9.3913Z" fill="white" style="fill:white;fill-opacity:1;"/>
<path d="M14.9875 10.0469C14.791 10.0469 14.6176 10.0176 14.4479 9.9418L13.8478 11.8328C14.1851 11.9481 14.5449 12 14.9462 12C15.3159 12 15.6552 11.9446 15.9628 11.838L15.3769 9.99159C15.2506 10.0294 15.1194 10.0481 14.9875 10.0469Z" fill="white" style="fill:white;fill-opacity:1;"/>
<path d="M13.7867 9.40012C13.783 9.39586 13.7793 9.39156 13.7756 9.38724L12.3948 10.8233C12.3987 10.8275 12.4025 10.8316 12.4064 10.8357C12.8862 11.347 13.3443 11.6642 13.8639 11.8382L14.4635 9.94862C14.2446 9.85458 14.0328 9.6841 13.7867 9.40012Z" fill="white" style="fill:white;fill-opacity:1;"/>
<path d="M13.7756 9.38725C13.3614 8.90559 12.8491 8.10364 12.0431 6.80685L10.9928 5.05519L10.9844 5.04108L9.76575 6.86869L9.77443 6.8833L10.5186 8.13521C11.24 9.34235 11.8277 10.2156 12.3948 10.8233C12.3987 10.8275 12.4025 10.8316 12.4064 10.8357L13.7867 9.40013C13.783 9.39587 13.7793 9.39158 13.7756 9.38725Z" fill="white" style="fill:white;fill-opacity:1;"/>
</svg>
