<svg xmlns="http://www.w3.org/2000/svg" fill="none" viewBox="0 0 24 24" width="24px" height="24px"><g fill="#000" clip-path="url(#a)"><path d="M12 12c1.165 0 2.33.173 3.396.516A3 3 0 0 0 15.003 14H13q-.176 0-.348.021A10 10 0 0 0 12 14c-1.7 0-3.286.435-4.383 1.174C6.58 15.873 6 16.807 6 18.06v.857c0 .21.066.367.138.462.064.085.14.132.24.151C7.59 19.761 9.465 20 12 20q.4-.001.778-.01.11.01.222.01h2c0 .646.208 1.291.623 1.83-1.027.1-2.235.17-3.623.17-2.33 0-4.15-.193-5.462-.41l-.531-.094C4.782 21.264 4 20.165 4 18.918v-.857C4 14.02 8 12 12 12"/><path d="M17.293 13.293a1 1 0 0 1 1.338-.068l.076.068 3 3a1 1 0 0 1 .136.169 1 1 0 0 1 .127.297l.006.02.01.062q.004.015.006.031l.005.054.002.054L22 17l-.001.02a1 1 0 0 1-.021.189l-.012.047a1 1 0 0 1-.259.451l-3 3a1 1 0 0 1-1.414-1.414L18.586 18H13a1 1 0 0 1 0-2h5.586l-1.293-1.293-.068-.076a1 1 0 0 1 .068-1.338"/><path fill-rule="evenodd" d="M12 2a4.5 4.5 0 1 1 0 9 4.5 4.5 0 0 1 0-9m0 2a2.5 2.5 0 1 0 0 5 2.5 2.5 0 0 0 0-5" clip-rule="evenodd"/></g><defs><clipPath id="a"><path fill="#fff" d="M0 0h24v24H0z"/></clipPath></defs></svg>