<svg xmlns="http://www.w3.org/2000/svg" fill="none" viewBox="0 0 24 24" width="24px" height="24px"><g fill="#000" clip-path="url(#a)"><path d="M20.36 14.231a1.001 1.001 0 0 1 1.28 1.538l-.099.082a44 44 0 0 0-5.24 5.167l-.542.632a1 1 0 0 1-1.466.057l-3-3a1 1 0 0 1 1.338-1.482l.076.068 2.237 2.237a46 46 0 0 1 5.317-5.216z"/><path d="M12 12c2.146 0 4.291.582 5.82 1.744l-.24.201a26 26 0 0 0-1.304 1.16C15.184 14.41 13.646 14 12 14c-1.7 0-3.286.435-4.383 1.174C6.58 15.873 6 16.807 6 18.06v.857c0 .21.066.367.138.462.064.085.14.132.24.151.812.154 1.92.309 3.324.397q.084.099.177.193l1.876 1.876c-2.212-.013-3.951-.198-5.217-.407l-.531-.094C4.782 21.264 4 20.165 4 18.918v-.857C4 14.02 8 12 12 12"/><path fill-rule="evenodd" d="M12 2a4.5 4.5 0 1 1 0 9 4.5 4.5 0 0 1 0-9m0 2a2.5 2.5 0 1 0 0 5 2.5 2.5 0 0 0 0-5" clip-rule="evenodd"/></g><defs><clipPath id="a"><path fill="#fff" d="M0 0h24v24H0z"/></clipPath></defs></svg>