<svg xmlns="http://www.w3.org/2000/svg" fill="none" viewBox="0 0 24 24" width="24px" height="24px"><g fill="#000" fill-rule="evenodd" clip-path="url(#a)" clip-rule="evenodd"><path d="M12 7a3.5 3.5 0 1 1 0 7 3.5 3.5 0 0 1 0-7m0 2a1.5 1.5 0 1 0 0 3 1.5 1.5 0 0 0 0-3"/><path d="M12 2c5.523 0 10 4.477 10 10s-4.477 10-10 10S2 17.523 2 12 6.477 2 12 2m0 14.818c-1.298 0-2.482.327-3.274.849-.482.317-.8.683-.961 1.12A7.96 7.96 0 0 0 12 20a7.96 7.96 0 0 0 4.235-1.215c-.162-.435-.479-.801-.96-1.118-.792-.522-1.976-.849-3.275-.849M12 4a8 8 0 0 0-5.822 13.483c1.04-1.776 3.43-2.665 5.822-2.665s4.782.89 5.822 2.665A8 8 0 0 0 12 4"/></g><defs><clipPath id="a"><path fill="#fff" d="M0 0h24v24H0z"/></clipPath></defs></svg>