<svg width="24" height="24" viewBox="0 0 24 24" fill="none" xmlns="http://www.w3.org/2000/svg">
<g clip-path="url(#clip0_20_23480)">
<path d="M16 4H6C5.44772 4 5 4.44772 5 5V17C5 17.5523 5.44772 18 6 18H12V20H6C4.34315 20 3 18.6569 3 17V5C3 3.34315 4.34315 2 6 2H16C17.6569 2 19 3.34315 19 5V8.02374C18.8356 8.00804 18.6687 8 18.4998 8C17.9764 8 17.4732 8.07714 17 8.22011V5C17 4.44772 16.5523 4 16 4Z" fill="black"/>
<path d="M8 7C7.44772 7 7 7.44772 7 8C7 8.55228 7.44772 9 8 9H13C13.5523 9 14 8.55228 14 8C14 7.44772 13.5523 7 13 7H8Z" fill="black"/>
<path d="M8 11C7.44772 11 7 11.4477 7 12C7 12.5523 7.44772 13 8 13H11C11.5523 13 12 12.5523 12 12C12 11.4477 11.5523 11 11 11H8Z" fill="black"/>
<path fill-rule="evenodd" clip-rule="evenodd" d="M21.2222 17L21.6135 13.4786C21.8197 11.6229 20.3671 10 18.5 10C16.6329 10 15.1803 11.6229 15.3865 13.4786L15.7778 17H15C14.4477 17 14 17.4477 14 18V21C14 21.5523 14.4477 22 15 22H22C22.5523 22 23 21.5523 23 21V18C23 17.4477 22.5523 17 22 17H21.2222ZM19.2099 17L19.6257 13.2577C19.7003 12.5868 19.1751 12 18.5 12C17.8249 12 17.2997 12.5868 17.3743 13.2577L17.7901 17H19.2099ZM16 19V20H21V19H16Z" fill="black"/>
</g>
<defs>
<clipPath id="clip0_20_23480">
<rect width="24" height="24" fill="white"/>
</clipPath>
</defs>
</svg>
