<svg xmlns="http://www.w3.org/2000/svg" fill="none" viewBox="0 0 24 24" width="24px" height="24px"><g fill="#000" clip-path="url(#a)"><path d="M15 16a1 1 0 1 1 0 2H9a1 1 0 1 1 0-2zm-3-6c2.667 0 4 1.125 4 3v.358c0 .708-.392 1.34-1.085 1.484-.631.13-1.573.248-2.915.248s-2.284-.118-2.915-.248C8.392 14.698 8 14.066 8 13.358V13c0-1.875 1.333-3 4-3m0-4.5a2 2 0 1 1 0 4 2 2 0 0 1 0-4"/><path fill-rule="evenodd" d="M17 2a3 3 0 0 1 3 3v14a3 3 0 0 1-3 3H7a3 3 0 0 1-2.996-2.846L4 19V5a3 3 0 0 1 3-3zM7 4a1 1 0 0 0-1 1v14a1 1 0 0 0 1 1h10a1 1 0 0 0 1-1V5a1 1 0 0 0-1-1z" clip-rule="evenodd"/></g><defs><clipPath id="a"><path fill="#fff" d="M0 0h24v24H0z"/></clipPath></defs></svg>